<svg fill="#FFFFFF" xmlns="http://www.w3.org/2000/svg" xmlns:xlink="http://www.w3.org/1999/xlink" version="1.1" x="0px" y="0px" viewBox="0 0 91 91" enable-background="new 0 0 91 91" xml:space="preserve"><g><path fill="#FFFFFF" d="M60.704,74.375h-1.191c-0.938,0-1.7,0.762-1.7,1.7s0.762,1.7,1.7,1.7h1.191c0.938,0,1.7-0.762,1.7-1.7   S61.643,74.375,60.704,74.375z"></path><path fill="#FFFFFF" d="M80.543,74.375h-1.71L51.621,42.147c-0.031-0.037-0.063-0.072-0.098-0.106   c-3.215-3.213-8.444-3.212-11.657,0c-0.034,0.034-0.066,0.069-0.097,0.106L12.573,74.375H10.65c-0.938,0-1.7,0.762-1.7,1.7   s0.762,1.7,1.7,1.7h41.634c0.938,0,1.7-0.762,1.7-1.7s-0.762-1.7-1.7-1.7H17.022l25.295-29.977   c1.877-1.825,4.879-1.825,6.756,0.001l25.311,29.976h-7.381c-0.938,0-1.7,0.762-1.7,1.7s0.762,1.7,1.7,1.7h13.54   c0.938,0,1.7-0.762,1.7-1.7S81.481,74.375,80.543,74.375z"></path><path fill="#FFFFFF" d="M36.885,57.604c-0.938,0-1.691,0.762-1.691,1.7s0.77,1.7,1.708,1.7s1.7-0.762,1.7-1.7s-0.762-1.7-1.7-1.7   H36.885z"></path><path fill="#FFFFFF" d="M48.836,61.004c0.938,0,1.7-0.762,1.7-1.7s-0.762-1.7-1.7-1.7h-0.018c-0.938,0-1.691,0.762-1.691,1.7   S47.897,61.004,48.836,61.004z"></path><path fill="#FFFFFF" d="M42.869,61.004c0.938,0,1.7-0.762,1.7-1.7s-0.762-1.7-1.7-1.7h-0.018c-0.938,0-1.691,0.762-1.691,1.7   S41.931,61.004,42.869,61.004z"></path><path fill="#FFFFFF" d="M45.869,55.928c0.938,0,1.7-0.762,1.7-1.7s-0.762-1.7-1.7-1.7h-0.017c-0.938,0-1.691,0.762-1.691,1.7   S44.931,55.928,45.869,55.928z"></path><path fill="#FFFFFF" d="M51.837,55.928c0.938,0,1.7-0.762,1.7-1.7s-0.762-1.7-1.7-1.7h-0.018c-0.938,0-1.691,0.762-1.691,1.7   S50.898,55.928,51.837,55.928z"></path><path fill="#FFFFFF" d="M42.457,52.527c0-0.938-0.77-1.7-1.708-1.7s-1.7,0.762-1.7,1.7s0.762,1.7,1.7,1.7h0.017   C41.704,54.228,42.457,53.466,42.457,52.527z"></path><path fill="#FFFFFF" d="M44.368,49.997c0.938,0,1.7-0.762,1.7-1.7s-0.762-1.7-1.7-1.7h-0.017c-0.938,0-1.691,0.762-1.691,1.7   S43.43,49.997,44.368,49.997z"></path><path fill="#FFFFFF" d="M58.729,60.145c0-0.938-0.762-1.7-1.7-1.7h-0.017c-0.938,0-1.691,0.762-1.691,1.7s0.77,1.7,1.708,1.7   S58.729,61.083,58.729,60.145z"></path><path fill="#FFFFFF" d="M30.124,65.185c-0.938,0-1.691,0.762-1.691,1.7s0.77,1.7,1.708,1.7s1.7-0.762,1.7-1.7s-0.762-1.7-1.7-1.7   H30.124z"></path><path fill="#FFFFFF" d="M49.066,32.208c0.938,0,1.7-0.761,1.7-1.7V30.49c0-0.939-0.762-1.691-1.7-1.691s-1.7,0.77-1.7,1.708   S48.128,32.208,49.066,32.208z"></path><path fill="#FFFFFF" d="M45.693,18.896c0.938,0,1.7-0.761,1.7-1.7v-0.017c0-0.939-0.762-1.691-1.7-1.691s-1.7,0.77-1.7,1.708   S44.755,18.896,45.693,18.896z"></path><path fill="#FFFFFF" d="M43.472,30.329c0.938,0,1.7-0.761,1.7-1.7v-0.017c0-0.939-0.762-1.691-1.7-1.691s-1.7,0.77-1.7,1.708   S42.533,30.329,43.472,30.329z"></path><path fill="#FFFFFF" d="M43.472,36.295c0.938,0,1.7-0.761,1.7-1.7v-0.017c0-0.939-0.762-1.691-1.7-1.691s-1.7,0.77-1.7,1.708   S42.533,36.295,43.472,36.295z"></path></g></svg>